<svg width="20" height="16" viewBox="0 0 20 16" fill="none" xmlns="http://www.w3.org/2000/svg">
<path d="M1.66669 3.83301L8.47079 8.59588C9.02176 8.98156 9.29725 9.1744 9.59691 9.2491C9.8616 9.31508 10.1384 9.31508 10.4031 9.2491C10.7028 9.1744 10.9783 8.98156 11.5293 8.59588L18.3334 3.83301M5.66669 14.6663H14.3334C15.7335 14.6663 16.4336 14.6663 16.9683 14.3939C17.4387 14.1542 17.8212 13.7717 18.0609 13.3013C18.3334 12.7665 18.3334 12.0665 18.3334 10.6663V5.33301C18.3334 3.93288 18.3334 3.23281 18.0609 2.69803C17.8212 2.22763 17.4387 1.84517 16.9683 1.60549C16.4336 1.33301 15.7335 1.33301 14.3334 1.33301H5.66669C4.26656 1.33301 3.56649 1.33301 3.03171 1.60549C2.56131 1.84517 2.17885 2.22763 1.93917 2.69803C1.66669 3.23281 1.66669 3.93288 1.66669 5.33301V10.6663C1.66669 12.0665 1.66669 12.7665 1.93917 13.3013C2.17885 13.7717 2.56131 14.1542 3.03171 14.3939C3.56649 14.6663 4.26656 14.6663 5.66669 14.6663Z" stroke="#313333" stroke-width="1.5" stroke-linecap="round" stroke-linejoin="round"/>
</svg>
